<svg width="118" height="54" viewBox="0 0 118 54" fill="none" xmlns="http://www.w3.org/2000/svg">
<path d="M3.5625 50.0312C3.10417 49.1354 2.76042 48.1875 2.53125 47.1875C2.30208 46.1667 2.1875 45.1042 2.1875 44C2.1875 42.875 2.375 41.3958 2.75 39.5625C3.14583 37.7292 3.67708 35.8021 4.34375 33.7812C5.01042 31.7396 5.78125 29.6562 6.65625 27.5312C7.55208 25.4062 8.5 23.3333 9.5 21.3125C11.5417 17.1042 13.5729 13.4583 15.5938 10.375H15.25C12.7708 10.375 10.4688 10.9375 8.34375 12.0625C7.82292 12.4583 7.32292 12.6562 6.84375 12.6562C5.84375 12.6562 4.875 12.1667 3.9375 11.1875C1.77083 8.89583 3.0625 7 7.8125 5.5C10.0417 4.77083 11.8333 4.40625 13.1875 4.40625C14.5625 4.40625 15.6667 4.625 16.5 5.0625C17.3333 5.47917 18.0417 5.97917 18.625 6.5625C19.5417 7.47917 20.1875 8.38542 20.5625 9.28125C20.9583 10.1771 21.1562 10.9688 21.1562 11.6562C21.1562 12.3229 20.9479 13.2292 20.5312 14.375C20.1354 15.5 19.625 16.7083 19 18L16.875 22.125C16.125 23.5625 15.375 25.0729 14.625 26.6562C13.875 28.2396 13.125 29.8229 12.375 31.4062C11.625 32.9896 10.9583 34.5312 10.375 36.0312C9.10417 39.3854 8.46875 42.2292 8.46875 44.5625C8.46875 45.9792 8.60417 47.1458 8.875 48.0625C9.79167 46.6042 10.9167 45.0833 12.25 43.5L16.625 38.5938C21.6875 33.1354 24.9792 29.5104 26.5 27.7188C30.0625 23.5312 32.7917 19.5833 34.6875 15.875C35.4583 14.3958 35.8438 13.0521 35.8438 11.8438C35.8438 9.61458 35.2292 7.9375 34 6.8125C33.5625 6.375 33.5 5.84375 33.8125 5.21875C34.1458 4.59375 34.4792 4.125 34.8125 3.8125C35.625 3.08333 36.5417 2.71875 37.5625 2.71875C38.5833 2.71875 39.4479 2.92708 40.1562 3.34375C40.8646 3.76042 41.4375 4.29167 41.875 4.9375C42.7708 6.20833 43.2188 7.79167 43.2188 9.6875C43.2188 11.5625 42.8125 13.5521 42 15.6562C41.2083 17.7604 40.1562 19.8229 38.8438 21.8438C37.5521 23.8438 36.0729 25.7917 34.4062 27.6875C32.7604 29.5625 31.0729 31.3542 29.3438 33.0625L19.9062 41.9688C17.0521 44.8438 15.1458 46.8125 14.1875 47.875C12.3542 49.9167 11.1771 51.2604 10.6562 51.9062C10.1354 52.5521 9.66667 52.9375 9.25 53.0625C8.83333 53.1875 8.27083 53.25 7.5625 53.25C6.85417 53.25 6.125 52.9375 5.375 52.3125C4.64583 51.6875 4.04167 50.9271 3.5625 50.0312ZM53.75 13.3438C53.2917 13.8229 52.7708 14.2188 52.1875 14.5312C51.6042 14.8229 50.9896 15.0104 50.3438 15.0938C49.6979 15.1562 49.0833 15.0521 48.5 14.7812C47.9375 14.5104 47.4479 14.125 47.0312 13.625C46.1354 12.5833 45.6875 11.5312 45.6875 10.4688C45.6875 9.40625 45.8542 8.61458 46.1875 8.09375C46.5417 7.55208 46.9792 7.11458 47.5 6.78125C48.5 6.13542 49.4375 5.8125 50.3125 5.8125C51.2083 5.8125 51.8958 5.875 52.375 6C52.875 6.125 53.3333 6.33333 53.75 6.625C54.7708 7.3125 55.2812 8.15625 55.2812 9.15625C55.2812 10.1354 55.1354 10.9583 54.8438 11.625C54.5729 12.2708 54.2083 12.8438 53.75 13.3438ZM47.3438 47.1562C47.8854 47.1562 48.1562 47.5104 48.1562 48.2188C48.1562 49.1562 47.7292 50.125 46.875 51.125C45.625 52.5833 43.9479 53.3125 41.8438 53.3125C39.4271 53.3125 37.7708 52.3333 36.875 50.375C36.5417 49.6875 36.375 48.8542 36.375 47.875C36.375 46.8958 36.5417 45.8125 36.875 44.625C37.2292 43.4167 37.6562 42.1562 38.1562 40.8438C38.6771 39.5104 39.2396 38.1667 39.8438 36.8125L41.5 32.875C42.7083 29.9375 43.3125 28 43.3125 27.0625C43.3125 26.125 43.2083 25.5104 43 25.2188C42.8125 24.9062 42.6042 24.6667 42.375 24.5L41.75 24.0625C41.5417 23.9167 41.4375 23.6667 41.4375 23.3125C41.4375 22.9375 41.5729 22.5833 41.8438 22.25C42.1354 21.9167 42.5104 21.625 42.9688 21.375C43.9062 20.8958 45 20.6562 46.25 20.6562C49.3125 20.6562 50.8438 21.4583 50.8438 23.0625C50.8438 24.9375 50.3542 27.0833 49.375 29.5C48.3958 31.8958 47.5625 33.8333 46.875 35.3125L45 39.625C43.625 42.7917 42.9375 45.0729 42.9375 46.4688C42.9375 47.3854 43.3958 47.8438 44.3125 47.8438C45.2083 47.8438 45.8854 47.7292 46.3438 47.5C46.8021 47.2708 47.1354 47.1562 47.3438 47.1562ZM56.7188 51.75C56.1979 51.2083 55.7708 50.5208 55.4375 49.6875C55.125 48.8333 54.9688 47.8542 54.9688 46.75C54.9688 45.625 55.2188 44.125 55.7188 42.25C56.2396 40.375 56.8958 38.2396 57.6875 35.8438L60.3125 28.0625C64.0417 17.2292 66.1979 8.85417 66.7812 2.9375C66.9688 1.1875 67.8229 0.3125 69.3438 0.3125C70.3021 0.3125 71.0938 0.541667 71.7188 1C72.9271 1.91667 73.5104 2.9375 73.4688 4.0625C73.4271 5.1875 73.2292 6.5625 72.875 8.1875C72.5208 9.79167 72.0625 11.5521 71.5 13.4688C70.9375 15.3646 70.2917 17.375 69.5625 19.5L65.25 32.1875C62.7708 39.3958 61.5312 44.0521 61.5312 46.1562C61.5312 47.2812 61.9896 47.8438 62.9062 47.8438C63.7812 47.8438 64.5729 47.6562 65.2812 47.2812C66.0104 46.9062 66.4792 46.7188 66.6875 46.7188C67.125 46.7188 67.3438 46.9375 67.3438 47.375C67.3438 49.2292 66.3958 50.7812 64.5 52.0312C63.2292 52.8854 62.0625 53.3125 61 53.3125C59.9583 53.3125 59.1146 53.1875 58.4688 52.9375C57.8229 52.6875 57.2396 52.2917 56.7188 51.75ZM74.5938 51.75C74.0729 51.2083 73.6458 50.5208 73.3125 49.6875C73 48.8333 72.8438 47.8542 72.8438 46.75C72.8438 45.625 73.0938 44.125 73.5938 42.25C74.1146 40.375 74.7708 38.2396 75.5625 35.8438L78.1875 28.0625C81.9167 17.2292 84.0729 8.85417 84.6562 2.9375C84.8438 1.1875 85.6979 0.3125 87.2188 0.3125C88.1771 0.3125 88.9688 0.541667 89.5938 1C90.8021 1.91667 91.3854 2.9375 91.3438 4.0625C91.3021 5.1875 91.1042 6.5625 90.75 8.1875C90.3958 9.79167 89.9375 11.5521 89.375 13.4688C88.8125 15.3646 88.1667 17.375 87.4375 19.5L83.125 32.1875C80.6458 39.3958 79.4062 44.0521 79.4062 46.1562C79.4062 47.2812 79.8646 47.8438 80.7812 47.8438C81.6562 47.8438 82.4479 47.6562 83.1562 47.2812C83.8854 46.9062 84.3542 46.7188 84.5625 46.7188C85 46.7188 85.2188 46.9375 85.2188 47.375C85.2188 49.2292 84.2708 50.7812 82.375 52.0312C81.1042 52.8854 79.9375 53.3125 78.875 53.3125C77.8333 53.3125 76.9896 53.1875 76.3438 52.9375C75.6979 52.6875 75.1146 52.2917 74.5938 51.75ZM91.25 42.0625C91.3333 40.25 91.6354 38.5208 92.1562 36.875C92.6771 35.2083 93.375 33.6042 94.25 32.0625C95.125 30.5 96.1458 29.0312 97.3125 27.6562C98.5 26.2604 99.7812 25.0417 101.156 24C104.135 21.7708 107.146 20.6562 110.188 20.6562C113.75 20.6562 116.125 22.125 117.312 25.0625C117.729 26.0625 117.927 27.25 117.906 28.625C117.885 29.9792 117.625 31.2396 117.125 32.4062C116.625 33.5521 115.927 34.6042 115.031 35.5625C114.156 36.5 113.104 37.3438 111.875 38.0938C110.667 38.8438 109.344 39.4792 107.906 40C104.948 41.0417 101.781 41.5833 98.4062 41.625C98.3229 41.9167 98.2708 42.3542 98.25 42.9375C98.2292 43.5208 98.2917 44.1771 98.4375 44.9062C98.5833 45.6146 98.8333 46.25 99.1875 46.8125C99.9375 48.0625 101.021 48.6875 102.438 48.6875C104.854 48.6875 107.208 47.9792 109.5 46.5625C110.312 46.0833 110.969 45.5938 111.469 45.0938C111.99 44.5729 112.438 44.3125 112.812 44.3125C113.188 44.3125 113.51 44.5417 113.781 45C114.073 45.4375 114.219 45.9375 114.219 46.5C114.219 47.6042 113.906 48.5625 113.281 49.375C110.656 52 106.75 53.3125 101.562 53.3125C98.5 53.3125 96.0417 52.3958 94.1875 50.5625C92.1042 48.4792 91.125 45.6458 91.25 42.0625ZM109.5 24.8125C107.312 24.8125 105.208 26.3125 103.188 29.3125C101.479 31.8958 100.104 34.9583 99.0625 38.5C102.542 38.1458 105.562 36.7708 108.125 34.375C110.479 32.125 111.656 29.9688 111.656 27.9062C111.656 25.8438 110.938 24.8125 109.5 24.8125Z" fill="white"/>
</svg>
