<svg width="118" height="123" viewBox="0 0 118 123" fill="none" xmlns="http://www.w3.org/2000/svg">
<path d="M48.638 88.5875C48.638 79.24 52.3141 70.7498 58.2991 64.4837C57.4629 63.6566 56.584 62.8726 55.6659 62.1354C49.7812 66.6448 42.4186 69.3249 34.431 69.3249C26.4434 69.3249 19.0808 66.6448 13.1962 62.1354C5.45411 68.3518 0.5 77.8913 0.5 88.5875C0.5 107.317 15.6912 122.5 34.431 122.5C43.7376 122.5 52.1684 118.756 58.2991 112.691C52.3141 106.425 48.638 97.935 48.638 88.5875ZM117.5 88.5875C117.5 77.8913 112.546 68.3518 104.804 62.1354C98.9192 66.6448 91.5566 69.3249 83.569 69.3249C75.5814 69.3249 68.2188 66.6448 62.3341 62.1354C61.416 62.8726 60.5371 63.6566 59.7009 64.4837C65.6859 70.7498 69.362 79.2401 69.362 88.5875C69.362 97.935 65.6859 106.425 59.7009 112.691C65.8316 118.756 74.2624 122.5 83.569 122.5C102.309 122.5 117.5 107.317 117.5 88.5875ZM83.569 53.6751C91.5566 53.6751 98.9192 56.3552 104.804 60.8646C112.546 54.6482 117.5 45.1087 117.5 34.4125C117.5 15.6834 102.309 0.5 83.569 0.5C74.2624 0.5 65.8316 4.24416 59.7009 10.3087C65.6859 16.5747 69.362 25.065 69.362 34.4125C69.362 43.7599 65.6859 52.2502 59.7009 58.5163C60.5371 59.3434 61.416 60.1274 62.3341 60.8646C68.2188 56.3552 75.5814 53.6751 83.569 53.6751ZM13.1962 60.8646C19.0808 56.3552 26.4434 53.6751 34.431 53.6751C42.4186 53.6751 49.7812 56.3552 55.6659 60.8646C56.584 60.1274 57.4629 59.3434 58.2991 58.5163C52.3141 52.2502 48.638 43.7599 48.638 34.4125C48.638 25.065 52.3141 16.5747 58.2991 10.3087C52.1684 4.24416 43.7376 0.5 34.431 0.5C15.6912 0.5 0.5 15.6834 0.5 34.4125C0.5 45.1087 5.45411 54.6482 13.1962 60.8646Z" fill="url(#paint0_angular_31_134)" stroke="black"/>
<defs>
<radialGradient id="paint0_angular_31_134" cx="0" cy="0" r="1" gradientUnits="userSpaceOnUse" gradientTransform="translate(59.0246 16.2476) rotate(90) scale(72.6595 5.45769e-06)">
<stop stop-color="#2C2C2C"/>
<stop offset="0.700876" stop-color="#7B7979"/>
<stop offset="1" stop-color="#C9C6C6"/>
</radialGradient>
</defs>
</svg>
