<svg width="306" height="123" viewBox="0 0 306 123" fill="none" xmlns="http://www.w3.org/2000/svg">
<path d="M48.638 88.5875C48.638 79.24 52.3141 70.7498 58.2991 64.4837C57.4629 63.6566 56.584 62.8726 55.6659 62.1354C49.7812 66.6448 42.4186 69.3249 34.431 69.3249C26.4434 69.3249 19.0808 66.6448 13.1962 62.1354C5.45411 68.3518 0.5 77.8913 0.5 88.5875C0.5 107.317 15.6912 122.5 34.431 122.5C43.7376 122.5 52.1684 118.756 58.2991 112.691C52.3141 106.425 48.638 97.935 48.638 88.5875ZM117.5 88.5875C117.5 77.8913 112.546 68.3518 104.804 62.1354C98.9192 66.6448 91.5566 69.3249 83.569 69.3249C75.5814 69.3249 68.2188 66.6448 62.3341 62.1354C61.416 62.8726 60.5371 63.6566 59.7009 64.4837C65.6859 70.7498 69.362 79.2401 69.362 88.5875C69.362 97.935 65.6859 106.425 59.7009 112.691C65.8316 118.756 74.2624 122.5 83.569 122.5C102.309 122.5 117.5 107.317 117.5 88.5875ZM83.569 53.6751C91.5566 53.6751 98.9192 56.3552 104.804 60.8646C112.546 54.6482 117.5 45.1087 117.5 34.4125C117.5 15.6834 102.309 0.5 83.569 0.5C74.2624 0.5 65.8316 4.24416 59.7009 10.3087C65.6859 16.5747 69.362 25.065 69.362 34.4125C69.362 43.7599 65.6859 52.2502 59.7009 58.5163C60.5371 59.3434 61.416 60.1274 62.3341 60.8646C68.2188 56.3552 75.5814 53.6751 83.569 53.6751ZM13.1962 60.8646C19.0808 56.3552 26.4434 53.6751 34.431 53.6751C42.4186 53.6751 49.7812 56.3552 55.6659 60.8646C56.584 60.1274 57.4629 59.3434 58.2991 58.5163C52.3141 52.2502 48.638 43.7599 48.638 34.4125C48.638 25.065 52.3141 16.5747 58.2991 10.3087C52.1684 4.24416 43.7376 0.5 34.431 0.5C15.6912 0.5 0.5 15.6834 0.5 34.4125C0.5 45.1087 5.45411 54.6482 13.1962 60.8646Z" fill="url(#paint0_angular_68_7)" stroke="black"/>
<path d="M135.102 53.1445C134.815 52.5846 134.6 51.9922 134.457 51.3672C134.314 50.7292 134.242 50.0651 134.242 49.375C134.242 48.6719 134.359 47.7474 134.594 46.6016C134.841 45.4557 135.173 44.2513 135.59 42.9883C136.007 41.7122 136.488 40.4102 137.035 39.082C137.595 37.7539 138.188 36.4583 138.812 35.1953C140.089 32.5651 141.358 30.2865 142.621 28.3594H142.406C140.857 28.3594 139.418 28.7109 138.09 29.4141C137.764 29.6615 137.452 29.7852 137.152 29.7852C136.527 29.7852 135.922 29.4792 135.336 28.8672C133.982 27.4349 134.789 26.25 137.758 25.3125C139.151 24.8568 140.271 24.6289 141.117 24.6289C141.977 24.6289 142.667 24.7656 143.188 25.0391C143.708 25.2995 144.151 25.612 144.516 25.9766C145.089 26.5495 145.492 27.1159 145.727 27.6758C145.974 28.2357 146.098 28.7305 146.098 29.1602C146.098 29.5768 145.967 30.1432 145.707 30.8594C145.46 31.5625 145.141 32.3177 144.75 33.125L143.422 35.7031C142.953 36.6016 142.484 37.5456 142.016 38.5352C141.547 39.5247 141.078 40.5143 140.609 41.5039C140.141 42.4935 139.724 43.457 139.359 44.3945C138.565 46.4909 138.168 48.2682 138.168 49.7266C138.168 50.612 138.253 51.3411 138.422 51.9141C138.995 51.0026 139.698 50.0521 140.531 49.0625L143.266 45.9961C146.43 42.5846 148.487 40.319 149.438 39.1992C151.664 36.582 153.37 34.1146 154.555 31.7969C155.036 30.8724 155.277 30.0326 155.277 29.2773C155.277 27.8841 154.893 26.8359 154.125 26.1328C153.852 25.8594 153.812 25.5273 154.008 25.1367C154.216 24.7461 154.424 24.4531 154.633 24.2578C155.141 23.8021 155.714 23.5742 156.352 23.5742C156.99 23.5742 157.53 23.7044 157.973 23.9648C158.415 24.2253 158.773 24.5573 159.047 24.9609C159.607 25.7552 159.887 26.7448 159.887 27.9297C159.887 29.1016 159.633 30.3451 159.125 31.6602C158.63 32.9753 157.973 34.2643 157.152 35.5273C156.345 36.7773 155.421 37.9948 154.379 39.1797C153.35 40.3516 152.296 41.4714 151.215 42.5391L145.316 48.1055C143.533 49.9023 142.341 51.1328 141.742 51.7969C140.596 53.0729 139.861 53.9128 139.535 54.3164C139.21 54.7201 138.917 54.9609 138.656 55.0391C138.396 55.1172 138.044 55.1562 137.602 55.1562C137.159 55.1562 136.703 54.9609 136.234 54.5703C135.779 54.1797 135.401 53.7044 135.102 53.1445ZM166.469 30.2148C166.182 30.5143 165.857 30.7617 165.492 30.957C165.128 31.1393 164.743 31.2565 164.34 31.3086C163.936 31.3477 163.552 31.2826 163.188 31.1133C162.836 30.944 162.53 30.7031 162.27 30.3906C161.71 29.7396 161.43 29.082 161.43 28.418C161.43 27.7539 161.534 27.2591 161.742 26.9336C161.964 26.5951 162.237 26.3216 162.562 26.1133C163.188 25.7096 163.773 25.5078 164.32 25.5078C164.88 25.5078 165.31 25.5469 165.609 25.625C165.922 25.7031 166.208 25.8333 166.469 26.0156C167.107 26.4453 167.426 26.9727 167.426 27.5977C167.426 28.2096 167.335 28.724 167.152 29.1406C166.983 29.5443 166.755 29.9023 166.469 30.2148ZM162.465 51.3477C162.803 51.3477 162.973 51.569 162.973 52.0117C162.973 52.5977 162.706 53.2031 162.172 53.8281C161.391 54.7396 160.342 55.1953 159.027 55.1953C157.517 55.1953 156.482 54.5833 155.922 53.3594C155.714 52.9297 155.609 52.4089 155.609 51.7969C155.609 51.1849 155.714 50.5078 155.922 49.7656C156.143 49.0104 156.41 48.2227 156.723 47.4023C157.048 46.569 157.4 45.7292 157.777 44.8828L158.812 42.4219C159.568 40.5859 159.945 39.375 159.945 38.7891C159.945 38.2031 159.88 37.819 159.75 37.6367C159.633 37.4414 159.503 37.2917 159.359 37.1875L158.969 36.9141C158.839 36.8229 158.773 36.6667 158.773 36.4453C158.773 36.2109 158.858 35.9896 159.027 35.7812C159.21 35.5729 159.444 35.3906 159.73 35.2344C160.316 34.9349 161 34.7852 161.781 34.7852C163.695 34.7852 164.652 35.2865 164.652 36.2891C164.652 37.4609 164.346 38.8021 163.734 40.3125C163.122 41.8099 162.602 43.0208 162.172 43.9453L161 46.6406C160.141 48.6198 159.711 50.0456 159.711 50.918C159.711 51.4909 159.997 51.7773 160.57 51.7773C161.13 51.7773 161.553 51.7057 161.84 51.5625C162.126 51.4193 162.335 51.3477 162.465 51.3477ZM168.324 54.2188C167.999 53.8802 167.732 53.4505 167.523 52.9297C167.328 52.3958 167.23 51.7839 167.23 51.0938C167.23 50.3906 167.387 49.4531 167.699 48.2812C168.025 47.1094 168.435 45.7747 168.93 44.2773L170.57 39.4141C172.901 32.6432 174.249 27.4089 174.613 23.7109C174.73 22.6172 175.264 22.0703 176.215 22.0703C176.814 22.0703 177.309 22.2135 177.699 22.5C178.454 23.0729 178.819 23.7109 178.793 24.4141C178.767 25.1172 178.643 25.9766 178.422 26.9922C178.201 27.9948 177.914 29.0951 177.562 30.293C177.211 31.4779 176.807 32.7344 176.352 34.0625L173.656 41.9922C172.107 46.4974 171.332 49.4076 171.332 50.7227C171.332 51.4258 171.618 51.7773 172.191 51.7773C172.738 51.7773 173.233 51.6602 173.676 51.4258C174.132 51.1914 174.424 51.0742 174.555 51.0742C174.828 51.0742 174.965 51.2109 174.965 51.4844C174.965 52.6432 174.372 53.6133 173.188 54.3945C172.393 54.9284 171.664 55.1953 171 55.1953C170.349 55.1953 169.822 55.1172 169.418 54.9609C169.014 54.8047 168.65 54.5573 168.324 54.2188ZM179.496 54.2188C179.171 53.8802 178.904 53.4505 178.695 52.9297C178.5 52.3958 178.402 51.7839 178.402 51.0938C178.402 50.3906 178.559 49.4531 178.871 48.2812C179.197 47.1094 179.607 45.7747 180.102 44.2773L181.742 39.4141C184.073 32.6432 185.421 27.4089 185.785 23.7109C185.902 22.6172 186.436 22.0703 187.387 22.0703C187.986 22.0703 188.48 22.2135 188.871 22.5C189.626 23.0729 189.991 23.7109 189.965 24.4141C189.939 25.1172 189.815 25.9766 189.594 26.9922C189.372 27.9948 189.086 29.0951 188.734 30.293C188.383 31.4779 187.979 32.7344 187.523 34.0625L184.828 41.9922C183.279 46.4974 182.504 49.4076 182.504 50.7227C182.504 51.4258 182.79 51.7773 183.363 51.7773C183.91 51.7773 184.405 51.6602 184.848 51.4258C185.303 51.1914 185.596 51.0742 185.727 51.0742C186 51.0742 186.137 51.2109 186.137 51.4844C186.137 52.6432 185.544 53.6133 184.359 54.3945C183.565 54.9284 182.836 55.1953 182.172 55.1953C181.521 55.1953 180.993 55.1172 180.59 54.9609C180.186 54.8047 179.822 54.5573 179.496 54.2188ZM189.906 48.1641C189.958 47.0312 190.147 45.9505 190.473 44.9219C190.798 43.8802 191.234 42.8776 191.781 41.9141C192.328 40.9375 192.966 40.0195 193.695 39.1602C194.438 38.2878 195.238 37.526 196.098 36.875C197.96 35.4818 199.841 34.7852 201.742 34.7852C203.969 34.7852 205.453 35.7031 206.195 37.5391C206.456 38.1641 206.579 38.9062 206.566 39.7656C206.553 40.612 206.391 41.3997 206.078 42.1289C205.766 42.8451 205.329 43.5026 204.77 44.1016C204.223 44.6875 203.565 45.2148 202.797 45.6836C202.042 46.1523 201.215 46.5495 200.316 46.875C198.467 47.526 196.488 47.8646 194.379 47.8906C194.327 48.0729 194.294 48.3464 194.281 48.7109C194.268 49.0755 194.307 49.4857 194.398 49.9414C194.49 50.3841 194.646 50.7812 194.867 51.1328C195.336 51.9141 196.013 52.3047 196.898 52.3047C198.409 52.3047 199.88 51.862 201.312 50.9766C201.82 50.6771 202.23 50.3711 202.543 50.0586C202.868 49.7331 203.148 49.5703 203.383 49.5703C203.617 49.5703 203.819 49.7135 203.988 50C204.171 50.2734 204.262 50.5859 204.262 50.9375C204.262 51.6276 204.066 52.2266 203.676 52.7344C202.035 54.375 199.594 55.1953 196.352 55.1953C194.438 55.1953 192.901 54.6224 191.742 53.4766C190.44 52.1745 189.828 50.4036 189.906 48.1641ZM201.312 37.3828C199.945 37.3828 198.63 38.3203 197.367 40.1953C196.299 41.8099 195.44 43.724 194.789 45.9375C196.964 45.7161 198.852 44.8568 200.453 43.3594C201.924 41.9531 202.66 40.6055 202.66 39.3164C202.66 38.0273 202.211 37.3828 201.312 37.3828ZM132.914 96.7969L132.934 96.2305C133.077 92.3372 134.06 88.6589 135.883 85.1953C137.562 82.0312 139.678 79.4727 142.23 77.5195C144.757 75.5924 147.217 74.6289 149.613 74.6289C151.436 74.6289 152.875 75.2604 153.93 76.5234C154.828 77.6172 155.277 78.9583 155.277 80.5469C155.277 82.4479 154.581 84.3229 153.188 86.1719C152.38 87.2396 151.521 88.0078 150.609 88.4766C150.18 88.7109 149.776 88.8281 149.398 88.8281C149.034 88.8281 148.695 88.75 148.383 88.5938C148.07 88.4375 147.797 88.2422 147.562 88.0078C147.081 87.5 146.84 87.0443 146.84 86.6406C146.84 86.237 146.944 85.957 147.152 85.8008C149.288 84.2643 150.74 82.6823 151.508 81.0547C151.807 80.4297 151.957 79.8177 151.957 79.2188C151.957 77.9557 151.358 77.3242 150.16 77.3242C148.285 77.3242 146.352 78.3464 144.359 80.3906C142.497 82.2786 140.935 84.6484 139.672 87.5C138.357 90.4297 137.66 93.1185 137.582 95.5664L137.562 96.3086C137.562 99.2383 138.181 101.159 139.418 102.07C139.861 102.396 140.388 102.559 141 102.559C141.625 102.559 142.211 102.48 142.758 102.324C143.305 102.168 143.852 101.953 144.398 101.68C145.284 101.224 146.417 100.436 147.797 99.3164C148.214 98.9909 148.559 99.0365 148.832 99.4531C149.066 99.7917 149.184 100.182 149.184 100.625C149.184 101.367 149.079 101.875 148.871 102.148C148.676 102.409 148.331 102.721 147.836 103.086C147.354 103.451 146.762 103.789 146.059 104.102C144.418 104.831 142.81 105.195 141.234 105.195C139.659 105.195 138.389 105.007 137.426 104.629C136.462 104.238 135.648 103.685 134.984 102.969C133.604 101.458 132.914 99.401 132.914 96.7969ZM155.59 103.672C155.043 103.151 154.613 102.493 154.301 101.699C153.988 100.892 153.826 99.9414 153.812 98.8477C153.799 97.7539 153.93 96.6471 154.203 95.5273C154.49 94.4076 154.887 93.3268 155.395 92.2852C155.915 91.2435 156.534 90.2669 157.25 89.3555C157.979 88.444 158.78 87.6497 159.652 86.9727C161.553 85.5143 163.526 84.7852 165.57 84.7852C168.253 84.7852 170.069 85.9635 171.02 88.3203C171.697 90.026 171.736 92.0898 171.137 94.5117C170.59 96.7383 169.587 98.7826 168.129 100.645C166.684 102.507 164.978 103.828 163.012 104.609C162.022 105 161.046 105.195 160.082 105.195C159.132 105.195 158.279 105.072 157.523 104.824C156.781 104.577 156.137 104.193 155.59 103.672ZM159.32 94.1992C158.93 95.1628 158.617 96.1523 158.383 97.168C158.161 98.1836 158.057 99.1471 158.07 100.059C158.083 100.957 158.22 101.667 158.48 102.188C158.754 102.695 159.19 102.949 159.789 102.949C160.388 102.949 160.974 102.747 161.547 102.344C162.133 101.927 162.699 101.38 163.246 100.703C163.793 100.026 164.307 99.2448 164.789 98.3594C165.271 97.474 165.694 96.5495 166.059 95.5859C166.853 93.4896 167.237 91.6276 167.211 90C167.211 88.5677 166.918 87.6562 166.332 87.2656C166.098 87.1094 165.766 87.0312 165.336 87.0312C164.919 87.0312 164.438 87.2266 163.891 87.6172C163.344 87.9948 162.797 88.5091 162.25 89.1602C161.703 89.8112 161.176 90.5729 160.668 91.4453C160.16 92.3177 159.711 93.2357 159.32 94.1992ZM189.086 88.4766C188.331 88.4766 186.951 89.5703 184.945 91.7578C183.448 93.4635 182.361 94.7461 181.684 95.6055L179.926 97.832C179.171 99.2643 178.578 100.456 178.148 101.406L177.094 103.672C176.82 104.232 176.579 104.629 176.371 104.863C176.176 105.085 175.902 105.195 175.551 105.195C175.212 105.195 174.88 105.13 174.555 105C174.242 104.883 173.969 104.727 173.734 104.531C173.24 104.115 172.992 103.659 172.992 103.164C172.992 102.969 173.135 102.585 173.422 102.012L174.164 100.43C174.398 99.9609 174.672 99.362 174.984 98.6328L176.078 95.957C177.615 92.1159 178.383 89.6354 178.383 88.5156C178.383 87.9167 178.188 87.474 177.797 87.1875L177.406 86.9141C177.276 86.8229 177.211 86.6667 177.211 86.4453C177.211 86.2109 177.296 85.9896 177.465 85.7812C177.647 85.5729 177.882 85.3906 178.168 85.2344C178.754 84.9349 179.34 84.7852 179.926 84.7852C180.525 84.7852 180.993 84.8503 181.332 84.9805C181.671 85.1107 181.964 85.2865 182.211 85.5078C182.706 85.9635 182.953 86.4388 182.953 86.9336C182.953 87.4284 182.888 87.9297 182.758 88.4375C182.628 88.9323 182.465 89.4401 182.27 89.9609C182.074 90.4688 181.866 90.9635 181.645 91.4453C181.124 92.5651 180.798 93.2552 180.668 93.5156C180.551 93.763 180.518 93.8542 180.57 93.7891C182.953 90.7031 184.385 88.8802 184.867 88.3203C185.87 87.1615 186.651 86.3672 187.211 85.9375C188.24 85.1693 189.21 84.7852 190.121 84.7852C191.046 84.7852 191.781 85.0716 192.328 85.6445C192.875 86.2174 193.148 86.9727 193.148 87.9102C193.148 88.7305 192.94 89.694 192.523 90.8008C192.107 91.9076 191.827 92.6823 191.684 93.125L194.555 89.3359L196.156 87.4219C197.12 86.3411 197.966 85.6315 198.695 85.293C199.424 84.9544 200.017 84.7852 200.473 84.7852C200.941 84.7852 201.397 84.8698 201.84 85.0391C202.296 85.2083 202.68 85.4492 202.992 85.7617C203.656 86.3997 203.988 87.2461 203.988 88.3008C203.988 89.3164 203.754 90.3581 203.285 91.4258C202.816 92.4935 202.406 93.3724 202.055 94.0625C201.703 94.7396 201.365 95.4232 201.039 96.1133C200.089 98.1836 199.613 99.7201 199.613 100.723C199.613 101.426 199.9 101.777 200.473 101.777C201.02 101.777 201.514 101.66 201.957 101.426C202.413 101.191 202.706 101.074 202.836 101.074C203.109 101.074 203.246 101.211 203.246 101.484C203.246 102.643 202.654 103.613 201.469 104.395C200.674 104.928 199.945 105.195 199.281 105.195C198.63 105.195 198.103 105.117 197.699 104.961C197.296 104.805 196.931 104.557 196.605 104.219C195.876 103.464 195.512 102.52 195.512 101.387C195.512 100.254 195.655 99.2122 195.941 98.2617C196.228 97.3112 196.566 96.3932 196.957 95.5078C197.348 94.6094 197.738 93.7891 198.129 93.0469C198.533 92.2917 198.839 91.6927 199.047 91.25C199.464 90.3385 199.672 89.668 199.672 89.2383C199.672 88.7305 199.405 88.4766 198.871 88.4766C198.168 88.4766 196.905 89.6419 195.082 91.9727C193.702 93.7826 192.745 95.0846 192.211 95.8789L190.863 97.832C190.108 99.2643 189.529 100.456 189.125 101.406L188.129 103.672C187.882 104.232 187.667 104.629 187.484 104.863C187.302 105.085 187.048 105.195 186.723 105.195C186.397 105.195 186.078 105.143 185.766 105.039C185.466 104.935 185.206 104.798 184.984 104.629C184.477 104.251 184.223 103.854 184.223 103.438C184.223 103.008 184.359 102.428 184.633 101.699C184.919 100.957 185.271 100.13 185.688 99.2188L188.422 93.4375C189.398 91.2891 189.887 89.9284 189.887 89.3555C189.887 88.7695 189.62 88.4766 189.086 88.4766ZM191.02 93.9844C191.033 93.9844 191.039 93.9779 191.039 93.9648L191.059 93.9258C191.033 93.9518 191.02 93.9714 191.02 93.9844ZM210.473 103.145C210.447 103.34 210.16 104.368 209.613 106.23C209.079 108.092 208.63 109.57 208.266 110.664C207.445 113.112 206.768 114.635 206.234 115.234C205.805 115.703 205.284 115.938 204.672 115.938C203.93 115.938 203.363 115.573 202.973 114.844C202.855 114.635 202.797 114.401 202.797 114.141C202.797 113.893 202.992 113.346 203.383 112.5C204.411 110.352 205.785 106.12 207.504 99.8047C208.194 97.3047 208.65 95.6055 208.871 94.707L209.496 92.2656C209.9 90.651 210.134 89.5573 210.199 88.9844C210.277 88.3984 210.245 87.9883 210.102 87.7539C209.958 87.5065 209.796 87.3242 209.613 87.207C209.431 87.0768 209.262 86.9661 209.105 86.875C208.949 86.7839 208.884 86.6211 208.91 86.3867C208.936 86.1393 209.04 85.918 209.223 85.7227C209.418 85.5143 209.659 85.3385 209.945 85.1953C210.531 84.9219 211.117 84.7852 211.703 84.7852C212.302 84.7852 212.771 84.8568 213.109 85C213.448 85.1432 213.728 85.3385 213.949 85.5859C214.418 86.0938 214.626 86.5885 214.574 87.0703C214.444 88.0729 214.301 88.9323 214.145 89.6484C216.423 86.4062 218.786 84.7852 221.234 84.7852C223.461 84.7852 224.952 85.9375 225.707 88.2422C225.967 89.0495 226.098 90.0326 226.098 91.1914C226.098 92.3503 225.922 93.5156 225.57 94.6875C225.219 95.8464 224.743 96.9466 224.145 97.9883C223.546 99.0299 222.849 99.9935 222.055 100.879C221.26 101.751 220.421 102.513 219.535 103.164C217.66 104.518 215.889 105.195 214.223 105.195C212.556 105.195 211.306 104.512 210.473 103.145ZM213.48 94.8242C213.012 95.7357 212.628 96.6471 212.328 97.5586C212.042 98.4701 211.898 99.3034 211.898 100.059C211.898 100.814 212.061 101.439 212.387 101.934C212.712 102.415 213.194 102.656 213.832 102.656C214.47 102.656 215.102 102.487 215.727 102.148C216.365 101.797 216.977 101.328 217.562 100.742C218.161 100.156 218.715 99.4727 219.223 98.6914C219.743 97.8971 220.193 97.0573 220.57 96.1719C221.391 94.2448 221.801 92.4154 221.801 90.6836C221.801 89.7461 221.677 89.0169 221.43 88.4961C221.182 87.9753 220.798 87.7148 220.277 87.7148C219.77 87.7148 219.236 87.9167 218.676 88.3203C218.116 88.7109 217.53 89.2383 216.918 89.9023C216.306 90.5534 215.701 91.3086 215.102 92.168C214.503 93.0143 213.962 93.8997 213.48 94.8242ZM244.086 99.8047C244.086 101.003 244.509 101.602 245.355 101.602C245.941 101.602 246.423 101.51 246.801 101.328C247.191 101.146 247.452 101.055 247.582 101.055C247.855 101.055 247.992 101.198 247.992 101.484C247.992 102.604 247.406 103.568 246.234 104.375C244.997 105.221 243.734 105.43 242.445 105C241.599 104.701 240.974 104.056 240.57 103.066C240.375 102.559 240.277 102.096 240.277 101.68C240.277 101.003 240.342 100.286 240.473 99.5312C239.262 102.005 237.758 103.711 235.961 104.648C235.245 105.013 234.483 105.195 233.676 105.195C232.868 105.195 232.165 105.033 231.566 104.707C230.98 104.368 230.479 103.906 230.062 103.32C229.216 102.096 228.832 100.56 228.91 98.7109C228.988 96.3932 229.672 94.1211 230.961 91.8945C232.146 89.8112 233.643 88.112 235.453 86.7969C237.263 85.4557 238.956 84.7852 240.531 84.7852C242.107 84.7852 243.376 85.5078 244.34 86.9531C245.238 85.5078 246.033 84.7852 246.723 84.7852C247.465 84.7852 248.025 84.9219 248.402 85.1953C249.118 85.7161 249.372 86.1719 249.164 86.5625C245.896 93.2552 244.216 97.4219 244.125 99.0625C244.099 99.2969 244.086 99.5443 244.086 99.8047ZM233.246 99.8828C233.246 101.445 233.747 102.227 234.75 102.227C235.518 102.227 236.462 101.576 237.582 100.273C239.223 98.3594 240.674 95.7812 241.938 92.5391C242.341 91.5234 242.68 90.5078 242.953 89.4922C242.901 88.6068 242.53 87.9557 241.84 87.5391C241.605 87.3958 241.254 87.3242 240.785 87.3242C240.329 87.3242 239.789 87.4935 239.164 87.832C238.552 88.1706 237.953 88.6328 237.367 89.2188C236.794 89.8047 236.254 90.5013 235.746 91.3086C235.251 92.1029 234.815 92.9688 234.438 93.9062C233.643 95.9115 233.246 97.9036 233.246 99.8828ZM264.77 88.4766C264.366 88.4766 263.793 88.8672 263.051 89.6484C262.309 90.4167 261.664 91.1198 261.117 91.7578L259.457 93.75L256.254 97.832C255.499 99.2643 254.906 100.456 254.477 101.406L253.422 103.672C253.148 104.232 252.908 104.629 252.699 104.863C252.504 105.085 252.23 105.195 251.879 105.195C251.54 105.195 251.208 105.13 250.883 105C250.57 104.883 250.297 104.727 250.062 104.531C249.568 104.115 249.32 103.659 249.32 103.164C249.32 102.969 249.464 102.585 249.75 102.012L250.492 100.43C250.727 99.9609 251 99.362 251.312 98.6328L252.406 95.957C253.943 92.1159 254.711 89.6354 254.711 88.5156C254.711 87.9167 254.516 87.474 254.125 87.1875L253.734 86.9141C253.604 86.8229 253.539 86.6667 253.539 86.4453C253.539 86.2109 253.624 85.9896 253.793 85.7812C253.975 85.5729 254.21 85.3906 254.496 85.2344C255.082 84.9349 255.668 84.7852 256.254 84.7852C256.853 84.7852 257.315 84.8503 257.641 84.9805C257.966 85.1107 258.24 85.2865 258.461 85.5078C258.943 85.9635 259.184 86.4388 259.184 86.9336C259.184 87.4284 259.118 87.9297 258.988 88.4375C258.871 88.9323 258.715 89.4401 258.52 89.9609C258.337 90.4688 258.142 90.9701 257.934 91.4648C257.725 91.9596 257.536 92.3893 257.367 92.7539L256.977 93.5938C256.872 93.8021 256.846 93.8672 256.898 93.7891C258.344 91.7839 259.294 90.4948 259.75 89.9219L261.117 88.2812C262.12 87.1094 262.908 86.3346 263.48 85.957C264.639 85.1758 265.551 84.7852 266.215 84.7852C266.879 84.7852 267.439 84.8698 267.895 85.0391C268.35 85.2083 268.747 85.4492 269.086 85.7617C269.802 86.4258 270.16 87.2721 270.16 88.3008C270.16 89.3294 269.926 90.4036 269.457 91.5234C268.988 92.6432 268.578 93.5547 268.227 94.2578C267.888 94.9479 267.562 95.651 267.25 96.3672C266.273 98.5417 265.785 100.124 265.785 101.113C265.785 101.556 266.137 101.777 266.84 101.777C267.387 101.777 267.882 101.66 268.324 101.426C268.78 101.191 269.073 101.074 269.203 101.074C269.477 101.074 269.613 101.211 269.613 101.484C269.613 102.643 269.021 103.613 267.836 104.395C267.042 104.928 266.312 105.195 265.648 105.195C264.984 105.195 264.431 105.124 263.988 104.98C263.559 104.837 263.174 104.609 262.836 104.297C262.068 103.607 261.684 102.643 261.684 101.406C261.684 99.8958 262.159 98.0078 263.109 95.7422C263.799 94.1927 264.288 93.1315 264.574 92.5586L265.238 91.1719C265.642 90.3385 265.844 89.681 265.844 89.1992C265.844 88.7174 265.486 88.4766 264.77 88.4766ZM273.109 103.105C272.953 102.676 272.875 102.188 272.875 101.641C272.875 101.081 272.966 100.462 273.148 99.7852C273.344 99.0951 273.591 98.3789 273.891 97.6367C274.19 96.8945 274.516 96.1328 274.867 95.3516L275.922 93.0078C277.276 90 277.777 88.2161 277.426 87.6562C277.27 87.4089 276.977 87.1615 276.547 86.9141C276.391 86.8229 276.312 86.6667 276.312 86.4453C276.312 86.2109 276.404 85.9896 276.586 85.7812C276.781 85.5729 277.029 85.3906 277.328 85.2344C277.966 84.9349 278.604 84.7852 279.242 84.7852C279.88 84.7852 280.362 84.8568 280.688 85C281.026 85.1302 281.299 85.2995 281.508 85.5078C281.938 85.9375 282.152 86.4128 282.152 86.9336C282.152 87.4544 282.068 88.0404 281.898 88.6914C281.729 89.3294 281.508 90.026 281.234 90.7812C280.961 91.5365 280.661 92.3177 280.336 93.125C279.438 95.2344 278.832 96.6276 278.52 97.3047L277.797 98.8086C277.393 99.707 277.191 100.339 277.191 100.703C277.191 101.068 277.25 101.328 277.367 101.484C277.484 101.628 277.693 101.699 277.992 101.699C278.305 101.699 278.643 101.582 279.008 101.348C279.385 101.113 279.789 100.801 280.219 100.41C280.648 100.02 281.091 99.5703 281.547 99.0625C282.016 98.5417 282.471 98.0013 282.914 97.4414C284.073 96.0091 284.932 94.7786 285.492 93.75C288.305 88.5677 289.796 85.8594 289.965 85.625C290.395 85.0651 290.824 84.7852 291.254 84.7852C291.697 84.7852 292.081 84.8372 292.406 84.9414C292.732 85.0326 293.012 85.1693 293.246 85.3516C293.767 85.7292 293.923 86.1523 293.715 86.6211C293.52 87.0898 293.279 87.7344 292.992 88.5547C290.518 95.7292 288.91 100.202 288.168 101.973C287.439 103.743 286.801 105.163 286.254 106.23C285.707 107.311 285.062 108.398 284.32 109.492C283.591 110.586 282.81 111.582 281.977 112.48C280.076 114.512 278.292 115.599 276.625 115.742C275.987 115.794 275.479 115.703 275.102 115.469C274.451 115.078 274.125 114.707 274.125 114.355C274.125 114.004 274.418 113.757 275.004 113.613C275.603 113.483 276.215 113.21 276.84 112.793C277.478 112.389 278.09 111.914 278.676 111.367C280.395 109.727 281.729 107.943 282.68 106.016C283.487 104.323 284.138 102.721 284.633 101.211L286.156 96.5625C285.779 97.0182 285.362 97.5521 284.906 98.1641L283.5 100.039C282.276 101.589 281.26 102.689 280.453 103.34C278.917 104.577 277.543 105.195 276.332 105.195C274.717 105.195 273.643 104.499 273.109 103.105Z" fill="black"/>
<defs>
<radialGradient id="paint0_angular_68_7" cx="0" cy="0" r="1" gradientUnits="userSpaceOnUse" gradientTransform="translate(59.0246 16.2476) rotate(90) scale(72.6595 5.45769e-06)">
<stop stop-color="#2C2C2C"/>
<stop offset="0.700876" stop-color="#7B7979"/>
<stop offset="1" stop-color="#C9C6C6"/>
</radialGradient>
</defs>
</svg>
