<svg width="30" height="30" viewBox="0 0 30 30" fill="none" xmlns="http://www.w3.org/2000/svg">
<path d="M14.2844 27.4656C12.8598 25.9032 11.9927 23.8534 11.9927 21.6067C11.9927 19.3601 12.8598 17.3102 14.2844 15.7478C14.2367 15.7066 14.1885 15.6659 14.1398 15.6257C12.6214 16.6719 10.7608 17.2866 8.75365 17.2866C6.74649 17.2866 4.88593 16.6719 3.36751 15.6257C1.60735 17.0768 0.5 19.2206 0.5 21.6067C0.5 25.9465 4.17527 29.5 8.75365 29.5C10.8839 29.5 12.8223 28.7288 14.2844 27.4656ZM29.5 21.6067C29.5 19.2206 28.3927 17.0768 26.6325 15.6257C25.1141 16.6719 23.2535 17.2866 21.2464 17.2866C19.2392 17.2866 17.3786 16.6719 15.8602 15.6257C15.8115 15.6659 15.7633 15.7066 15.7156 15.7478C17.1402 17.3102 18.0073 19.3601 18.0073 21.6067C18.0073 23.8534 17.1402 25.9032 15.7156 27.4656C17.1777 28.7288 19.1161 29.5 21.2464 29.5C25.8247 29.5 29.5 25.9465 29.5 21.6067ZM8.75365 12.7134C10.7608 12.7134 12.6214 13.3281 14.1398 14.3743C14.1885 14.3341 14.2367 14.2934 14.2844 14.2522C12.8598 12.6898 11.9927 10.6399 11.9927 8.39329C11.9927 6.14664 12.8598 4.09679 14.2844 2.53437C12.8223 1.27118 10.8839 0.5 8.75365 0.5C4.17527 0.5 0.5 4.05354 0.5 8.39329C0.5 10.7794 1.60735 12.9232 3.36751 14.3743C4.88593 13.3281 6.74649 12.7134 8.75365 12.7134ZM18.0073 8.39329C18.0073 10.6399 17.1402 12.6898 15.7156 14.2522C15.7633 14.2934 15.8115 14.3341 15.8602 14.3743C17.3786 13.3281 19.2392 12.7134 21.2464 12.7134C23.2535 12.7134 25.1141 13.3281 26.6325 14.3743C28.3927 12.9232 29.5 10.7794 29.5 8.39329C29.5 4.05354 25.8247 0.5 21.2464 0.5C19.1161 0.5 17.1777 1.27118 15.7156 2.53437C17.1402 4.09679 18.0073 6.14664 18.0073 8.39329Z" fill="url(#paint0_angular_36_31)" stroke="black"/>
<defs>
<radialGradient id="paint0_angular_36_31" cx="0" cy="0" r="1" gradientUnits="userSpaceOnUse" gradientTransform="translate(15.0063 3.96283) rotate(90) scale(17.7218 1.38755e-06)">
<stop stop-color="#2C2C2C"/>
<stop offset="0.700876" stop-color="#7B7979"/>
<stop offset="1" stop-color="#C9C6C6"/>
</radialGradient>
</defs>
</svg>
